<?xml version="1.0" encoding="UTF-8" standalone="no"?><!-- Generator: Gravit.io --><svg xmlns="http://www.w3.org/2000/svg" xmlns:xlink="http://www.w3.org/1999/xlink" style="isolation:isolate" viewBox="0 0 487 110.811" width="487pt" height="110.811pt"><path d=" M 59.66 100.44 C 66.98 100.44 73.34 95.64 73.34 87.24 C 73.34 81.84 71.06 78.72 66.5 78.72 C 59.06 78.72 60.26 88.68 50.66 88.68 C 44.54 88.68 40.58 84.84 40.58 79.08 L 40.58 37.08 C 40.58 30.24 44.9 27.24 49.7 27.24 C 60.14 27.24 56.18 37.32 65.18 37.32 C 69.5 37.32 72.38 33.48 72.38 28.68 C 72.38 19.2 68.78 15 62.3 15 L 25.82 15 C 21.02 15 16.7 19.68 16.7 24.96 L 16.7 89.76 C 16.7 96.24 21.38 100.44 28.1 100.44 L 59.66 100.44 Z  M 126.62 94.68 C 126.62 98.52 128.42 100.44 131.9 100.44 C 135.86 100.44 137.78 98.52 137.78 94.68 L 137.78 20.88 C 137.78 17.16 136.22 15 132.5 15 C 128.66 15 126.62 17.28 126.62 20.88 L 126.62 33.72 C 126.62 39.12 122.66 43.44 116.06 43.44 C 109.58 43.44 105.38 39.12 105.38 33.72 L 105.38 23.88 C 105.38 18.12 101.9 15 94.22 15 C 86.42 15 81.38 18.12 81.38 23.88 L 81.38 90.6 C 81.38 97.2 86.9 100.44 93.62 100.44 C 101.54 100.44 105.38 96.84 105.38 90.6 L 105.38 69.48 C 105.38 60.48 108.86 57.36 116.06 57.36 C 123.14 57.36 126.62 60.48 126.62 68.76 L 126.62 94.68 Z  M 178.94 91.32 C 178.94 96.84 183.98 100.44 190.7 100.44 C 199.22 100.44 203.42 96.12 203.42 90 L 203.42 25.32 C 203.42 19.56 199.34 15 194.06 15 L 158.78 15 C 150.5 15 146.54 19.8 146.54 25.44 L 146.54 94.68 C 146.54 98.04 148.82 100.44 151.46 100.44 C 154.82 100.44 156.86 98.28 156.86 95.04 L 156.86 84.24 C 156.86 77.28 161.3 72.72 167.66 72.72 C 173.54 72.72 178.94 76.68 178.94 84.96 L 178.94 91.32 Z  M 167.66 59.28 C 160.94 59.28 156.26 51.6 156.26 43.08 C 156.26 32.64 160.58 26.88 167.9 26.88 C 174.98 26.88 179.54 31.56 179.54 41.52 C 179.54 53.52 174.98 59.28 167.66 59.28 Z  M 221.66 90.84 C 221.66 97.32 226.58 100.44 234.14 100.44 C 241.7 100.44 246.74 97.32 246.74 90.72 L 246.74 39 C 246.74 34.44 247.34 30.12 249.86 28.8 L 255.86 25.56 C 257.9 24.48 259.1 23.04 259.1 20.28 C 259.1 16.92 256.34 15 252.62 15 L 214.94 15 C 211.7 15 209.42 17.4 209.42 20.16 C 209.42 22.8 210.5 24 212.54 25.2 L 218.42 28.56 C 221.18 30.24 221.66 34.08 221.66 39 L 221.66 90.84 Z  M 274.82 90.84 C 274.82 97.32 279.74 100.44 287.3 100.44 C 294.86 100.44 299.9 97.32 299.9 90.72 L 299.9 39 C 299.9 34.44 300.5 30.12 303.02 28.8 L 309.02 25.56 C 311.06 24.48 312.26 23.04 312.26 20.28 C 312.26 16.92 309.5 15 305.78 15 L 268.1 15 C 264.86 15 262.58 17.4 262.58 20.16 C 262.58 22.8 263.66 24 265.7 25.2 L 271.58 28.56 C 274.34 30.24 274.82 34.08 274.82 39 L 274.82 90.84 Z  M 362.66 100.44 C 371.06 100.44 375.02 95.64 375.02 90 L 375.02 20.28 C 375.02 16.92 372.86 15 369.98 15 C 366.74 15 364.7 17.16 364.7 20.4 L 364.7 76.32 C 364.7 83.28 360.14 87.84 353.9 87.84 C 348.26 87.84 342.5 84 342.5 75.6 L 342.5 24.24 C 342.5 18.48 337.58 15 330.98 15 C 322.34 15 318.14 19.56 318.14 25.44 L 318.14 90.12 C 318.14 96 322.22 100.44 327.5 100.44 L 362.66 100.44 Z  M 459.38 94.8 C 459.38 98.52 461.42 100.44 464.18 100.44 C 467.06 100.44 469.58 98.52 469.58 94.8 L 469.58 30.48 C 469.58 20.64 465.74 15 455.06 15 L 393.26 15 C 387.74 15 383.42 19.08 383.42 24.36 L 383.42 90.12 C 383.42 96.36 389.54 100.44 395.9 100.44 C 402.26 100.44 407.54 96.36 407.54 90.12 L 407.54 39 C 407.54 31.8 412.22 27.24 418.1 27.24 C 424.7 27.24 429.26 30.96 429.26 39 L 429.26 96 C 429.26 99.24 431.06 100.44 433.58 100.44 C 435.98 100.44 437.54 99.24 437.54 96 L 437.54 39 C 437.54 30.96 441.38 27.84 448.82 27.84 C 455.42 27.84 459.38 31.44 459.38 39 L 459.38 94.8 Z " fill="rgb(4,121,210)"/></svg>