<?xml version="1.0" encoding="UTF-8" standalone="no"?><!-- Generator: Gravit.io --><svg xmlns="http://www.w3.org/2000/svg" xmlns:xlink="http://www.w3.org/1999/xlink" style="isolation:isolate" viewBox="0 0 487 110.811" width="487pt" height="110.811pt"><path d=" M 48.36 29.64 L 15.72 29.64 C 13.8 29.64 12.24 31.2 12.24 33.12 L 12.24 38.52 L 6.84 38.52 C 4.92 38.52 3.36 40.08 3.36 42 L 3.36 83.52 C 3.36 85.44 4.92 87 6.84 87 L 12.24 87 L 12.24 92.4 C 12.24 94.32 13.8 95.88 15.72 95.88 L 48.36 95.88 C 50.28 95.88 51.84 94.32 51.84 92.4 L 51.84 87 L 57.24 87 C 59.16 87 60.72 85.44 60.72 83.52 L 60.72 73.44 C 60.72 71.28 59.04 69.6 56.88 69.6 L 42.96 69.6 C 40.92 69.6 39.24 71.28 39.24 73.44 L 39.24 85.32 C 39.24 86.28 38.4 87 37.44 87 L 33.84 87 C 32.88 87 32.04 86.28 32.04 85.32 L 32.04 81.84 C 32.04 80.88 31.32 80.16 30.36 80.16 L 26.64 80.16 C 25.68 80.16 24.84 79.32 24.84 78.36 L 24.84 40.2 C 24.84 39.24 25.68 38.52 26.64 38.52 L 30.36 38.52 C 31.32 38.52 32.04 39.24 32.04 40.2 L 32.04 43.68 C 32.04 44.64 32.76 45.48 33.72 45.48 L 37.44 45.48 C 38.4 45.48 39.24 46.2 39.24 47.16 L 39.24 52.2 C 39.24 54.24 40.92 55.92 42.96 55.92 L 56.88 55.92 C 59.04 55.92 60.72 54.24 60.72 52.2 L 60.72 42 C 60.72 40.08 59.16 38.52 57.24 38.52 L 51.84 38.52 L 51.84 33.12 C 51.84 31.2 50.28 29.64 48.36 29.64 Z  M 111.96 29.64 L 88.92 29.64 L 88.92 14.04 C 88.92 12 87.24 10.32 85.2 10.32 L 71.16 10.32 C 69.12 10.32 67.44 12 67.44 14.04 L 67.44 92.16 C 67.44 94.2 69.12 95.88 71.16 95.88 L 85.2 95.88 C 87.24 95.88 88.92 94.2 88.92 92.16 L 88.92 40.2 C 88.92 39.24 89.76 38.52 90.72 38.52 L 94.44 38.52 C 95.4 38.52 96.12 39.24 96.12 40.2 L 96.12 44.16 C 96.12 44.88 96.72 45.48 97.44 45.48 L 101.52 45.48 C 102.48 45.48 103.32 46.2 103.32 47.16 L 103.32 92.16 C 103.32 94.2 105 95.88 107.04 95.88 L 121.08 95.88 C 123.12 95.88 124.8 94.2 124.8 92.16 L 124.8 42.48 C 124.8 40.32 123 38.52 120.84 38.52 L 115.92 38.52 L 115.92 33.6 C 115.92 31.44 114.12 29.64 111.96 29.64 Z  M 184.56 38.52 L 180 38.52 L 180 33.96 C 180 31.56 178.08 29.64 175.68 29.64 L 144.72 29.64 C 142.32 29.64 140.4 31.56 140.4 33.96 L 140.4 38.52 L 135.84 38.52 C 133.44 38.52 131.52 40.44 131.52 42.84 L 131.52 46.92 C 131.52 48.96 133.08 50.52 135.12 50.52 L 149.4 50.52 C 151.44 50.52 153 48.96 153 46.92 L 153 39.84 C 153 39.12 153.6 38.52 154.32 38.52 L 158.88 38.52 C 159.6 38.52 160.2 39.12 160.2 39.84 L 160.2 43.68 C 160.2 44.64 161.04 45.48 162 45.48 L 165.96 45.48 C 166.68 45.48 167.4 46.08 167.4 46.92 L 167.4 54.48 C 167.4 55.32 166.68 55.92 165.96 55.92 L 144.6 55.92 C 142.32 55.92 140.4 57.84 140.4 60.24 L 140.4 64.8 L 135.72 64.8 C 133.44 64.8 131.52 66.72 131.52 69 L 131.52 91.2 C 131.52 93.84 133.68 96 136.32 96 L 184.2 96 C 186.72 96 188.88 93.84 188.88 91.2 L 188.88 42.84 C 188.88 40.44 186.96 38.52 184.56 38.52 Z  M 165.6 87 L 162 87 C 161.04 87 160.2 86.28 160.2 85.32 L 160.2 82.32 C 160.2 81.12 159.24 80.16 157.92 80.16 L 154.8 80.16 C 153.84 80.16 153 79.32 153 78.36 L 153 73.32 C 153 72.48 153.72 71.76 154.68 71.76 L 165.72 71.76 C 166.68 71.76 167.4 72.48 167.4 73.32 L 167.4 85.32 C 167.4 86.28 166.56 87 165.6 87 Z  M 239.88 45.48 C 241.56 45.48 243 44.04 243 42.36 L 243 32.76 C 243 31.08 241.56 29.64 239.88 29.64 L 227.52 29.64 L 227.52 12.12 C 227.52 11.16 226.68 10.32 225.72 10.32 L 216.6 10.32 C 215.64 10.32 214.92 11.04 214.92 12 L 214.92 18.24 C 214.92 18.72 214.44 19.08 213.96 19.08 L 207.72 19.08 C 206.76 19.08 206.04 19.92 206.04 20.88 L 206.04 29.64 L 198.72 29.64 C 197.04 29.64 195.6 31.08 195.6 32.76 L 195.6 42.36 C 195.6 44.04 197.04 45.48 198.72 45.48 L 206.04 45.48 L 205.92 84 C 205.92 85.68 207.36 87 209.04 87 L 214.8 87 L 214.8 92.88 C 214.8 94.56 216.12 95.88 217.92 95.88 L 239.64 95.88 C 241.44 95.88 243 94.44 243 92.64 L 243 83.4 C 243 81.6 241.44 80.16 239.64 80.16 L 229.32 80.16 C 228.36 80.16 227.52 79.32 227.52 78.36 L 227.52 45.48 L 239.88 45.48 Z  M 294 45.48 C 295.68 45.48 297.12 44.04 297.12 42.36 L 297.12 32.76 C 297.12 31.08 295.68 29.64 294 29.64 L 281.64 29.64 L 281.64 12.12 C 281.64 11.16 280.8 10.32 279.84 10.32 L 270.72 10.32 C 269.76 10.32 269.04 11.04 269.04 12 L 269.04 18.24 C 269.04 18.72 268.56 19.08 268.08 19.08 L 261.84 19.08 C 260.88 19.08 260.16 19.92 260.16 20.88 L 260.16 29.64 L 252.84 29.64 C 251.16 29.64 249.72 31.08 249.72 32.76 L 249.72 42.36 C 249.72 44.04 251.16 45.48 252.84 45.48 L 260.16 45.48 L 260.04 84 C 260.04 85.68 261.48 87 263.16 87 L 268.92 87 L 268.92 92.88 C 268.92 94.56 270.24 95.88 272.04 95.88 L 293.76 95.88 C 295.56 95.88 297.12 94.44 297.12 92.64 L 297.12 83.4 C 297.12 81.6 295.56 80.16 293.76 80.16 L 283.44 80.16 C 282.48 80.16 281.64 79.32 281.64 78.36 L 281.64 45.48 L 294 45.48 Z  M 357.96 29.64 L 342.84 29.64 C 341.16 29.64 339.72 31.08 339.72 32.88 L 339.72 85.2 C 339.72 86.16 338.88 87 337.8 87 L 334.44 87 C 333.36 87 332.52 86.16 332.52 85.2 L 332.52 81.84 C 332.52 80.88 331.8 80.16 330.84 80.16 L 327.24 80.16 C 326.16 80.16 325.32 79.32 325.32 78.24 L 325.32 32.88 C 325.32 31.08 323.88 29.64 322.2 29.64 L 307.08 29.64 C 305.28 29.64 303.84 31.08 303.84 32.88 L 303.84 83.28 C 303.84 85.32 305.52 87 307.68 87 L 312.72 87 L 312.72 92.16 C 312.72 94.2 314.4 95.88 316.44 95.88 L 347.52 95.88 C 350.16 95.88 352.32 93.72 352.32 91.08 L 352.32 87 L 356.4 87 C 359.04 87 361.2 84.84 361.2 82.2 L 361.2 32.88 C 361.2 31.08 359.76 29.64 357.96 29.64 Z  M 457.2 38.52 L 452.28 38.52 L 452.28 33.6 C 452.28 31.44 450.48 29.64 448.32 29.64 L 380.04 29.64 C 378.24 29.64 376.8 31.08 376.8 32.88 L 376.8 38.52 L 371.16 38.52 C 369.36 38.52 367.92 39.96 367.92 41.76 L 367.92 92.16 C 367.92 94.2 369.6 95.88 371.64 95.88 L 385.68 95.88 C 387.72 95.88 389.4 94.2 389.4 92.16 L 389.4 40.2 C 389.4 39.24 390.24 38.52 391.2 38.52 L 394.92 38.52 C 395.88 38.52 396.6 39.24 396.6 40.2 L 396.6 44.16 C 396.6 44.88 397.2 45.48 397.92 45.48 L 402 45.48 C 402.96 45.48 403.8 46.2 403.8 47.16 L 403.8 92.16 C 403.8 93.72 404.76 94.92 406.08 95.64 C 406.56 95.76 407.04 95.88 407.52 95.88 L 421.56 95.88 C 422.76 95.88 423.84 95.28 424.68 94.2 L 424.68 94.08 C 424.92 93.72 425.04 93.48 425.16 93.24 C 425.16 93.12 425.16 93.12 425.16 93 L 425.28 92.4 C 425.28 92.28 425.28 92.28 425.28 92.16 L 425.28 40.2 C 425.28 39.24 426.12 38.52 426.96 38.52 L 430.8 38.52 C 431.64 38.52 432.48 39.24 432.48 40.2 L 432.48 44.16 C 432.48 44.88 433.08 45.48 433.68 45.48 L 437.88 45.48 C 438.84 45.48 439.68 46.2 439.68 47.16 L 439.68 92.16 C 439.68 94.2 441.36 95.88 443.4 95.88 L 457.32 95.88 C 459.48 95.88 461.16 94.2 461.16 92.16 L 461.16 42.48 C 461.16 40.32 459.36 38.52 457.2 38.52 Z " fill="rgb(4,121,210)"/></svg>